<svg width="80" height="16" viewBox="0 0 80 16" fill="none" xmlns="http://www.w3.org/2000/svg">
<rect x="66.4908" y="2.23682" width="9.31719" height="11.8582" fill="white"/>
<path d="M5.08118 12.6324C7.50409 12.6324 8.73631 11.2208 9.27627 10.0356L6.86721 8.97027C6.63184 9.66274 5.91189 10.262 5.08118 10.262C3.7382 10.262 2.83826 9.27656 2.83826 8.03811C2.83826 6.79965 3.7382 5.81422 5.08118 5.81422C5.91189 5.81422 6.63184 6.41347 6.86721 7.10594L9.27627 6.02728C8.72247 4.80215 7.50409 3.44385 5.08118 3.44385C2.18754 3.44385 0 5.29487 0 8.03811C0 10.768 2.18754 12.6324 5.08118 12.6324Z" fill="black"/>
<path d="M15.3903 12.4726V5.93407H17.8547V3.59033H10.1153V5.93407H12.5936V12.4726H15.3903Z" fill="black"/>
<path d="M21.4784 12.6324C23.2644 12.6324 24.3028 11.7934 24.8843 10.6881L28.581 3.59033H25.452L23.7352 7.19915L22.0322 3.59033H18.9032L22.1568 9.83586C21.963 10.1155 21.7138 10.262 21.2292 10.262C20.7584 10.262 20.3431 10.0622 20.0385 9.86249L18.9032 11.9133C19.6231 12.4459 20.5785 12.6324 21.4784 12.6324Z" fill="black"/>
<path d="M27.5937 14.1105H30.3904V12.4726H34.9732V14.1105H37.7699V10.1288H36.9669V3.59033H29.7535L29.1859 8.06474C28.9643 9.75596 28.4244 10.1155 27.5937 10.262V14.1105ZM31.9688 8.26449L32.2733 5.93407H34.1701V10.1288H31.0688C31.5395 9.66274 31.8718 9.05017 31.9688 8.26449Z" fill="black"/>
<path d="M41.8391 12.4726L45.2451 7.43885V12.4726H48.0418V3.59033H45.162L41.9499 8.33107V3.59033H39.1532V12.4726H41.8391Z" fill="black"/>
<path d="M52.6938 12.4726L53.9675 9.67606H54.9782V12.4726H57.775V3.59033H52.8461C50.6862 3.59033 49.5232 4.97527 49.5232 6.63985C49.5232 8.17127 50.4509 8.98359 51.1846 9.32982L49.5094 12.4726H52.6938ZM53.2753 7.33232C52.8045 7.33232 52.3615 7.11925 52.3615 6.62654C52.3615 6.14714 52.8045 5.93407 53.2753 5.93407H54.9782V7.33232H53.2753Z" fill="black"/>
<path fill-rule="evenodd" clip-rule="evenodd" d="M64.2917 0.992343C63.2993 1.98469 63.2993 3.58184 63.2993 6.77614V9.22386C63.2993 12.4182 63.2993 14.0153 64.2917 15.0077C65.284 16 66.8812 16 70.0755 16H73.0961C76.2904 16 77.8875 16 78.8799 15.0077C79.8722 14.0153 79.8722 12.4182 79.8722 9.22386V6.77614C79.8722 3.58184 79.8722 1.98469 78.8799 0.992343C77.8875 0 76.2904 0 73.0961 0H70.0755C66.8812 0 65.284 0 64.2917 0.992343ZM72.7137 5.05123H74.4296L74.4296 6.86329H72.7137V9.82014L72.714 9.83119C72.733 10.6231 72.75 11.3302 73.6459 11.3302H74.5286L74.5781 13.1423C74.5781 13.1423 73.9467 13.4443 73.0244 13.4443C70.7398 13.4443 69.917 12.669 69.917 10.4242V6.86329H68.3633V5.05123H69.917V2.66649H72.7137V5.05123Z" fill="#E31717"/>
</svg>
